<svg xmlns="http://www.w3.org/2000/svg" viewBox="0 0 1024 1024" role="img" aria-label="KTV-Picker logo">
  <defs>
    <radialGradient id="bg" cx="34%" cy="24%" r="86%">
      <stop offset="0" stop-color="#232336"/>
      <stop offset="0.52" stop-color="#111118"/>
      <stop offset="1" stop-color="#050507"/>
    </radialGradient>
    <linearGradient id="ring" x1="242" y1="196" x2="792" y2="822" gradientUnits="userSpaceOnUse">
      <stop stop-color="#55e6ff"/>
      <stop offset="0.48" stop-color="#ffffff"/>
      <stop offset="1" stop-color="#ff3d8b"/>
    </linearGradient>
    <linearGradient id="mic" x1="372" y1="258" x2="646" y2="780" gradientUnits="userSpaceOnUse">
      <stop stop-color="#ffffff"/>
      <stop offset="1" stop-color="#c8fbff"/>
    </linearGradient>
    <filter id="soft" x="-24%" y="-24%" width="148%" height="148%">
      <feDropShadow dx="0" dy="18" stdDeviation="22" flood-color="#000000" flood-opacity="0.58"/>
      <feDropShadow dx="0" dy="0" stdDeviation="18" flood-color="#55e6ff" flood-opacity="0.18"/>
    </filter>
  </defs>
  <rect width="1024" height="1024" rx="232" fill="url(#bg)"/>
  <circle cx="512" cy="512" r="310" fill="none" stroke="url(#ring)" stroke-width="54" opacity="0.96"/>
  <circle cx="512" cy="512" r="218" fill="#050507" opacity="0.92"/>
  <g filter="url(#soft)">
    <rect x="396" y="240" width="232" height="380" rx="116" fill="url(#mic)"/>
    <rect x="444" y="296" width="136" height="214" rx="68" fill="#0b0b10" opacity="0.92"/>
    <path d="M338 472c0 96 78 174 174 174s174-78 174-174" fill="none" stroke="#55e6ff" stroke-width="44" stroke-linecap="round"/>
    <path d="M512 646v92" stroke="#ffffff" stroke-width="44" stroke-linecap="round"/>
    <path d="M420 782h184" stroke="#ffffff" stroke-width="44" stroke-linecap="round"/>
    <path d="M658 334c62 34 102 98 102 170" fill="none" stroke="#ff3d8b" stroke-width="34" stroke-linecap="round"/>
    <path d="M694 258c88 58 144 152 144 258" fill="none" stroke="#ff3d8b" stroke-width="26" stroke-linecap="round" opacity="0.72"/>
  </g>
</svg>
