<svg xmlns="http://www.w3.org/2000/svg" width="1240" height="760" viewBox="0 0 1240 760">
  <defs>
    <linearGradient id="pc" x1="0" y1="0" x2="1" y2="1"><stop offset="0" stop-color="#ff3d8b"/><stop offset="1" stop-color="#55e6ff"/></linearGradient>
    <linearGradient id="pcFill" x1="0" y1="0" x2="1" y2="1"><stop offset="0" stop-color="#ff3d8b"/><stop offset="1" stop-color="#55e6ff"/></linearGradient>
    <radialGradient id="bg" cx="0.5" cy="0.0" r="1"><stop offset="0" stop-color="#0c0c12"/><stop offset="1" stop-color="#050507"/></radialGradient>
    <linearGradient id="appbg" x1="0" y1="0" x2="1" y2="1"><stop offset="0" stop-color="#15151b"/><stop offset="1" stop-color="#0a0a0c"/></linearGradient>
    <linearGradient id="pinkbg" x1="0" y1="0" x2="1" y2="1"><stop offset="0" stop-color="#ff3d8b"/><stop offset="1" stop-color="#ff6aa8"/></linearGradient>
  </defs>
  <rect width="1240" height="760" fill="url(#bg)"/>
  <circle cx="100" cy="40" r="220" fill="#ff3d8b" opacity="0.07"/>
  <text x="60" y="80" font-family="Segoe UI, Arial, sans-serif" font-weight="800" font-size="40" fill="#ffffff">Concept A · Swipe Mic — refined</text>
  <text x="62" y="112" font-family="Segoe UI, Arial, sans-serif" font-size="18" fill="#8a8a95">complete mic + round stand · swipe cue moved clear of the mic</text><g transform="translate(60 150)"><rect width="260" height="260" rx="61" fill="url(#appbg)" stroke="rgba(255,255,255,0.10)" stroke-width="1.5"/><g transform="scale(1.3)">
    <g fill="none" stroke="url(#pc)" stroke-linecap="round" stroke-linejoin="round" stroke-width="9">
      <!-- mic head -->
      <rect x="52" y="24" width="40" height="72" rx="20" fill="url(#pcFill)" stroke="none"/>
      <line x1="61" y1="46" x2="83" y2="46" stroke="#050507" stroke-opacity="0.5" stroke-width="4"/>
      <line x1="61" y1="60" x2="83" y2="60" stroke="#050507" stroke-opacity="0.5" stroke-width="4"/>
      <line x1="61" y1="74" x2="83" y2="74" stroke="#050507" stroke-opacity="0.5" stroke-width="4"/>
      <!-- cradle / yoke -->
      <path d="M44 84 a28 28 0 0 0 56 0"/>
      <!-- stand pole -->
      <line x1="72" y1="112" x2="72" y2="150"/>
      <!-- round stand base -->
      <ellipse cx="72" cy="156" rx="30" ry="9"/>
    </g>
    <!-- swipe cue, kept clear of the mic -->
    <g fill="none" stroke="#55e6ff" stroke-linecap="round" stroke-linejoin="round" stroke-width="9">
      <path d="M120 44 l16 18 -16 18" opacity="0.95"/>
      <path d="M140 44 l16 18 -16 18" opacity="0.5"/>
    </g></g></g><text x="380" y="180" font-family="Segoe UI, Arial, sans-serif" font-weight="700" font-size="20" fill="#ffffff">At app sizes</text><g transform="translate(380 200)"><rect width="120" height="120" rx="28" fill="url(#appbg)" stroke="rgba(255,255,255,0.10)" stroke-width="1.5"/><g transform="scale(0.6)">
    <g fill="none" stroke="url(#pc)" stroke-linecap="round" stroke-linejoin="round" stroke-width="9">
      <!-- mic head -->
      <rect x="52" y="24" width="40" height="72" rx="20" fill="url(#pcFill)" stroke="none"/>
      <line x1="61" y1="46" x2="83" y2="46" stroke="#050507" stroke-opacity="0.5" stroke-width="4"/>
      <line x1="61" y1="60" x2="83" y2="60" stroke="#050507" stroke-opacity="0.5" stroke-width="4"/>
      <line x1="61" y1="74" x2="83" y2="74" stroke="#050507" stroke-opacity="0.5" stroke-width="4"/>
      <!-- cradle / yoke -->
      <path d="M44 84 a28 28 0 0 0 56 0"/>
      <!-- stand pole -->
      <line x1="72" y1="112" x2="72" y2="150"/>
      <!-- round stand base -->
      <ellipse cx="72" cy="156" rx="30" ry="9"/>
    </g>
    <!-- swipe cue, kept clear of the mic -->
    <g fill="none" stroke="#55e6ff" stroke-linecap="round" stroke-linejoin="round" stroke-width="9">
      <path d="M120 44 l16 18 -16 18" opacity="0.95"/>
      <path d="M140 44 l16 18 -16 18" opacity="0.5"/>
    </g></g></g><g transform="translate(522 200)"><rect width="88" height="88" rx="21" fill="url(#appbg)" stroke="rgba(255,255,255,0.10)" stroke-width="1.5"/><g transform="scale(0.44)">
    <g fill="none" stroke="url(#pc)" stroke-linecap="round" stroke-linejoin="round" stroke-width="9">
      <!-- mic head -->
      <rect x="52" y="24" width="40" height="72" rx="20" fill="url(#pcFill)" stroke="none"/>
      <line x1="61" y1="46" x2="83" y2="46" stroke="#050507" stroke-opacity="0.5" stroke-width="4"/>
      <line x1="61" y1="60" x2="83" y2="60" stroke="#050507" stroke-opacity="0.5" stroke-width="4"/>
      <line x1="61" y1="74" x2="83" y2="74" stroke="#050507" stroke-opacity="0.5" stroke-width="4"/>
      <!-- cradle / yoke -->
      <path d="M44 84 a28 28 0 0 0 56 0"/>
      <!-- stand pole -->
      <line x1="72" y1="112" x2="72" y2="150"/>
      <!-- round stand base -->
      <ellipse cx="72" cy="156" rx="30" ry="9"/>
    </g>
    <!-- swipe cue, kept clear of the mic -->
    <g fill="none" stroke="#55e6ff" stroke-linecap="round" stroke-linejoin="round" stroke-width="9">
      <path d="M120 44 l16 18 -16 18" opacity="0.95"/>
      <path d="M140 44 l16 18 -16 18" opacity="0.5"/>
    </g></g></g><g transform="translate(632 200)"><rect width="64" height="64" rx="15" fill="url(#appbg)" stroke="rgba(255,255,255,0.10)" stroke-width="1.5"/><g transform="scale(0.32)">
    <g fill="none" stroke="url(#pc)" stroke-linecap="round" stroke-linejoin="round" stroke-width="9">
      <!-- mic head -->
      <rect x="52" y="24" width="40" height="72" rx="20" fill="url(#pcFill)" stroke="none"/>
      <line x1="61" y1="46" x2="83" y2="46" stroke="#050507" stroke-opacity="0.5" stroke-width="4"/>
      <line x1="61" y1="60" x2="83" y2="60" stroke="#050507" stroke-opacity="0.5" stroke-width="4"/>
      <line x1="61" y1="74" x2="83" y2="74" stroke="#050507" stroke-opacity="0.5" stroke-width="4"/>
      <!-- cradle / yoke -->
      <path d="M44 84 a28 28 0 0 0 56 0"/>
      <!-- stand pole -->
      <line x1="72" y1="112" x2="72" y2="150"/>
      <!-- round stand base -->
      <ellipse cx="72" cy="156" rx="30" ry="9"/>
    </g>
    <!-- swipe cue, kept clear of the mic -->
    <g fill="none" stroke="#55e6ff" stroke-linecap="round" stroke-linejoin="round" stroke-width="9">
      <path d="M120 44 l16 18 -16 18" opacity="0.95"/>
      <path d="M140 44 l16 18 -16 18" opacity="0.5"/>
    </g></g></g><g transform="translate(718 200)"><rect width="44" height="44" rx="10" fill="url(#appbg)" stroke="rgba(255,255,255,0.10)" stroke-width="1.5"/><g transform="scale(0.22)">
    <g fill="none" stroke="url(#pc)" stroke-linecap="round" stroke-linejoin="round" stroke-width="9">
      <!-- mic head -->
      <rect x="52" y="24" width="40" height="72" rx="20" fill="url(#pcFill)" stroke="none"/>
      <line x1="61" y1="46" x2="83" y2="46" stroke="#050507" stroke-opacity="0.5" stroke-width="4"/>
      <line x1="61" y1="60" x2="83" y2="60" stroke="#050507" stroke-opacity="0.5" stroke-width="4"/>
      <line x1="61" y1="74" x2="83" y2="74" stroke="#050507" stroke-opacity="0.5" stroke-width="4"/>
      <!-- cradle / yoke -->
      <path d="M44 84 a28 28 0 0 0 56 0"/>
      <!-- stand pole -->
      <line x1="72" y1="112" x2="72" y2="150"/>
      <!-- round stand base -->
      <ellipse cx="72" cy="156" rx="30" ry="9"/>
    </g>
    <!-- swipe cue, kept clear of the mic -->
    <g fill="none" stroke="#55e6ff" stroke-linecap="round" stroke-linejoin="round" stroke-width="9">
      <path d="M120 44 l16 18 -16 18" opacity="0.95"/>
      <path d="M140 44 l16 18 -16 18" opacity="0.5"/>
    </g></g></g><g transform="translate(784 200)"><rect width="32" height="32" rx="8" fill="url(#appbg)" stroke="rgba(255,255,255,0.10)" stroke-width="1.5"/><g transform="scale(0.16)">
    <g fill="none" stroke="url(#pc)" stroke-linecap="round" stroke-linejoin="round" stroke-width="9">
      <!-- mic head -->
      <rect x="52" y="24" width="40" height="72" rx="20" fill="url(#pcFill)" stroke="none"/>
      <line x1="61" y1="46" x2="83" y2="46" stroke="#050507" stroke-opacity="0.5" stroke-width="4"/>
      <line x1="61" y1="60" x2="83" y2="60" stroke="#050507" stroke-opacity="0.5" stroke-width="4"/>
      <line x1="61" y1="74" x2="83" y2="74" stroke="#050507" stroke-opacity="0.5" stroke-width="4"/>
      <!-- cradle / yoke -->
      <path d="M44 84 a28 28 0 0 0 56 0"/>
      <!-- stand pole -->
      <line x1="72" y1="112" x2="72" y2="150"/>
      <!-- round stand base -->
      <ellipse cx="72" cy="156" rx="30" ry="9"/>
    </g>
    <!-- swipe cue, kept clear of the mic -->
    <g fill="none" stroke="#55e6ff" stroke-linecap="round" stroke-linejoin="round" stroke-width="9">
      <path d="M120 44 l16 18 -16 18" opacity="0.95"/>
      <path d="M140 44 l16 18 -16 18" opacity="0.5"/>
    </g></g></g><text x="380" y="380" font-family="Segoe UI, Arial, sans-serif" font-weight="700" font-size="20" fill="#ffffff">Reversed on brand pink</text><g transform="translate(380 400)"><rect width="120" height="120" rx="28" fill="url(#pinkbg)" stroke="rgba(255,255,255,0.10)" stroke-width="1.5"/><g transform="scale(0.6)">
    <g fill="none" stroke="#0a0a0c" stroke-linecap="round" stroke-linejoin="round" stroke-width="9">
      <!-- mic head -->
      <rect x="52" y="24" width="40" height="72" rx="20" fill="#0a0a0c" stroke="none"/>
      <line x1="61" y1="46" x2="83" y2="46" stroke="#050507" stroke-opacity="0.5" stroke-width="4"/>
      <line x1="61" y1="60" x2="83" y2="60" stroke="#050507" stroke-opacity="0.5" stroke-width="4"/>
      <line x1="61" y1="74" x2="83" y2="74" stroke="#050507" stroke-opacity="0.5" stroke-width="4"/>
      <!-- cradle / yoke -->
      <path d="M44 84 a28 28 0 0 0 56 0"/>
      <!-- stand pole -->
      <line x1="72" y1="112" x2="72" y2="150"/>
      <!-- round stand base -->
      <ellipse cx="72" cy="156" rx="30" ry="9"/>
    </g>
    <!-- swipe cue, kept clear of the mic -->
    <g fill="none" stroke="#0a0a0c" stroke-linecap="round" stroke-linejoin="round" stroke-width="9">
      <path d="M120 44 l16 18 -16 18" opacity="0.95"/>
      <path d="M140 44 l16 18 -16 18" opacity="0.5"/>
    </g></g></g><text x="540" y="380" font-family="Segoe UI, Arial, sans-serif" font-weight="700" font-size="20" fill="#ffffff">Monochrome</text><g transform="translate(540 400)"><rect width="120" height="120" rx="28" fill="url(#appbg)" stroke="rgba(255,255,255,0.10)" stroke-width="1.5"/><g transform="scale(0.6)">
    <g fill="none" stroke="#ffffff" stroke-linecap="round" stroke-linejoin="round" stroke-width="9">
      <!-- mic head -->
      <rect x="52" y="24" width="40" height="72" rx="20" fill="#ffffff" stroke="none"/>
      <line x1="61" y1="46" x2="83" y2="46" stroke="#050507" stroke-opacity="0.5" stroke-width="4"/>
      <line x1="61" y1="60" x2="83" y2="60" stroke="#050507" stroke-opacity="0.5" stroke-width="4"/>
      <line x1="61" y1="74" x2="83" y2="74" stroke="#050507" stroke-opacity="0.5" stroke-width="4"/>
      <!-- cradle / yoke -->
      <path d="M44 84 a28 28 0 0 0 56 0"/>
      <!-- stand pole -->
      <line x1="72" y1="112" x2="72" y2="150"/>
      <!-- round stand base -->
      <ellipse cx="72" cy="156" rx="30" ry="9"/>
    </g>
    <!-- swipe cue, kept clear of the mic -->
    <g fill="none" stroke="#ffffff" stroke-linecap="round" stroke-linejoin="round" stroke-width="9">
      <path d="M120 44 l16 18 -16 18" opacity="0.95"/>
      <path d="M140 44 l16 18 -16 18" opacity="0.5"/>
    </g></g></g><text x="60" y="470" font-family="Segoe UI, Arial, sans-serif" font-weight="700" font-size="20" fill="#ffffff">Lockup</text><g transform="translate(60 490)"><rect width="96" height="96" rx="24" fill="url(#appbg)" stroke="rgba(255,255,255,0.10)" stroke-width="1.5"/><g transform="scale(0.48)">
    <g fill="none" stroke="url(#pc)" stroke-linecap="round" stroke-linejoin="round" stroke-width="9">
      <!-- mic head -->
      <rect x="52" y="24" width="40" height="72" rx="20" fill="url(#pcFill)" stroke="none"/>
      <line x1="61" y1="46" x2="83" y2="46" stroke="#050507" stroke-opacity="0.5" stroke-width="4"/>
      <line x1="61" y1="60" x2="83" y2="60" stroke="#050507" stroke-opacity="0.5" stroke-width="4"/>
      <line x1="61" y1="74" x2="83" y2="74" stroke="#050507" stroke-opacity="0.5" stroke-width="4"/>
      <!-- cradle / yoke -->
      <path d="M44 84 a28 28 0 0 0 56 0"/>
      <!-- stand pole -->
      <line x1="72" y1="112" x2="72" y2="150"/>
      <!-- round stand base -->
      <ellipse cx="72" cy="156" rx="30" ry="9"/>
    </g>
    <!-- swipe cue, kept clear of the mic -->
    <g fill="none" stroke="#55e6ff" stroke-linecap="round" stroke-linejoin="round" stroke-width="9">
      <path d="M120 44 l16 18 -16 18" opacity="0.95"/>
      <path d="M140 44 l16 18 -16 18" opacity="0.5"/>
    </g></g></g><g transform="translate(180 552) scale(1)" font-family="Segoe UI, Arial, sans-serif" font-weight="800" font-size="52">
    <text x="0" y="0" fill="#ffffff">What</text><text x="132" y="0" fill="#55e6ff">2</text><text x="166" y="0" fill="#ffffff">Sing</text></g></svg>